<?xml version="1.0" encoding="utf-8" ?>
<svg baseProfile="tiny" height="100%" version="1.2" width="100%" xmlns="http://www.w3.org/2000/svg" xmlns:ev="http://www.w3.org/2001/xml-events" xmlns:xlink="http://www.w3.org/1999/xlink"><defs /><text fill="black" font-size="3.5px" x="30.0" y="28">5.1</text><rect fill="lightblue" height="3" opacity="0.7" stroke="black" stroke-width="0.1" width="4.2588" x="30.0" y="30" /><text fill="black" font-size="3.5px" x="67.32850609756098" y="28">4.1</text><rect fill="lightblue" height="3" opacity="0.7" stroke="black" stroke-width="0.1" width="4.859" x="67.3285" y="30" /><text fill="black" font-size="3.5px" x="76.13185975609755" y="28">4.2</text><rect fill="lightblue" height="3" opacity="0.7" stroke="black" stroke-width="0.1" width="4.516" x="76.1319" y="30" /><text fill="black" font-size="3.5px" x="83.64900914634146" y="28">4.3</text><rect fill="lightblue" height="3" opacity="0.7" stroke="black" stroke-width="0.1" width="4.859" x="83.649" y="30" /><text fill="black" font-size="3.5px" x="91.8235518292683" y="28">4.4</text><rect fill="lightblue" height="3" opacity="0.7" stroke="black" stroke-width="0.1" width="4.7732" x="91.8236" y="30" /><text fill="black" font-size="3.5px" x="100.3125" y="28">4.5</text><rect fill="lightblue" height="3" opacity="0.7" stroke="black" stroke-width="0.1" width="4.859" x="100.3125" y="30" /><text fill="black" font-size="3.5px" x="108.25838414634147" y="28">4.6</text><rect fill="lightblue" height="3" opacity="0.7" stroke="black" stroke-width="0.1" width="4.6018" x="108.2584" y="30" /><text fill="black" font-size="3.5px" x="116.1471036585366" y="28">4.7</text><rect fill="lightblue" height="3" opacity="0.7" stroke="black" stroke-width="0.1" width="4.6018" x="116.1471" y="30" /><text fill="black" font-size="3.5px" x="124.3216463414634" y="28">4.8</text><rect fill="lightblue" height="3" opacity="0.7" stroke="black" stroke-width="0.1" width="4.6018" x="124.3216" y="30" /><text fill="black" font-size="3.5px" x="132.7248475609756" y="28">4.9</text><rect fill="lightblue" height="3" opacity="0.7" stroke="black" stroke-width="0.1" width="4.859" x="132.7248" y="30" /><text fill="black" font-size="3.5px" x="150.76028963414635" y="28">4.10</text><rect fill="lightblue" height="3" opacity="0.7" stroke="black" stroke-width="0.1" width="4.6018" x="150.7603" y="30" /><text fill="black" font-size="3.5px" x="165.70884146341464" y="28">4.11</text><rect fill="lightblue" height="3" opacity="0.7" stroke="black" stroke-width="0.1" width="4.6018" x="165.7088" y="30" /><text fill="black" font-size="3.5px" x="175.3982469512195" y="28">4.12</text><rect fill="lightblue" height="3" opacity="0.7" stroke="black" stroke-width="0.1" width="4.6018" x="175.3982" y="30" /><rect fill="lightgreen" fill-opacity="0.7" height="150.0" stroke="black" stroke-opacity="0.5" stroke-width="0.1" width="4.2588" x="30.0572" y="34" /><rect fill="yellow" fill-opacity="0.7" height="51.5856" stroke="black" stroke-opacity="0.5" stroke-width="0.1" width="4.859" x="67.3285" y="34" /><rect fill="yellow" fill-opacity="0.7" height="10.606" stroke="black" stroke-opacity="0.5" stroke-width="0.1" width="4.516" x="76.1319" y="34" /><rect fill="yellow" fill-opacity="0.7" height="12.0359" stroke="black" stroke-opacity="0.5" stroke-width="0.1" width="4.859" x="83.649" y="34" /><rect fill="yellow" fill-opacity="0.7" height="1.4084" stroke="black" stroke-opacity="0.5" stroke-width="0.1" width="4.7732" x="91.8236" y="34" /><rect fill="yellow" fill-opacity="0.7" height="22.0527" stroke="black" stroke-opacity="0.5" stroke-width="0.1" width="4.859" x="100.3125" y="34" /><rect fill="yellow" fill-opacity="0.7" height="22.0311" stroke="black" stroke-opacity="0.5" stroke-width="0.1" width="4.6018" x="108.2584" y="34" /><rect fill="yellow" fill-opacity="0.7" height="5.7629" stroke="black" stroke-opacity="0.5" stroke-width="0.1" width="4.6018" x="116.1471" y="34" /><rect fill="yellow" fill-opacity="0.7" height="8.1126" stroke="black" stroke-opacity="0.5" stroke-width="0.1" width="4.6018" x="124.3216" y="34" /><rect fill="yellow" fill-opacity="0.7" height="7.4012" stroke="black" stroke-opacity="0.5" stroke-width="0.1" width="4.859" x="132.7248" y="34" /><rect fill="yellow" fill-opacity="0.7" height="3.9234" stroke="black" stroke-opacity="0.5" stroke-width="0.1" width="4.6018" x="150.7603" y="34" /><rect fill="yellow" fill-opacity="0.7" height="1.703" stroke="black" stroke-opacity="0.5" stroke-width="0.1" width="4.6018" x="165.7088" y="34" /><rect fill="yellow" fill-opacity="0.7" height="3.3772" stroke="black" stroke-opacity="0.5" stroke-width="0.1" width="4.6018" x="175.3982" y="34" /><text fill="black" font-size="5px" x="80.0" y="15.0">NG-8304_Dscam1_lib80429_3962_GAATTCGTTATAGCCT_SJ</text></svg>